<?xml version="1.0" encoding="utf-8"?><svg viewBox="0 0 512 512" xmlns="http://www.w3.org/2000/svg" xmlns:xlink="http://www.w3.org/1999/xlink"><style>:root>svg{display:none}:root>svg:target{display:block}</style><svg viewBox="0 0 512 512" id="check" xmlns="http://www.w3.org/2000/svg"><!--! Font Awesome Pro 6.2.0 by @fontawesome - https://fontawesome.com License - https://fontawesome.com/license (Commercial License) Copyright 2022 Fonticons, Inc.--><path d="M470.6 105.4c12.5 12.5 12.5 32.8 0 45.3l-256 256c-12.5 12.5-32.8 12.5-45.3 0l-128-128c-12.5-12.5-12.5-32.8 0-45.3s32.8-12.5 45.3 0L192 338.7l233.4-233.3c12.5-12.5 32.8-12.5 45.3 0z"/></svg><svg viewBox="0 0 19 19" id="check-price" xmlns="http://www.w3.org/2000/svg"><g clip-path="url(#ba)" stroke-width="1.5"><path d="M17.956 9.478A8.48 8.48 0 009.478 1 8.48 8.48 0 001 9.478a8.48 8.48 0 008.478 8.478 8.48 8.48 0 008.478-8.478z"/><path d="M13.717 5.946L7.782 13.01 5.24 10.185"/></g><defs><clipPath id="ba"><path d="M0 0h19v19H0z"/></clipPath></defs></svg><svg viewBox="0 0 18 18" id="clock" xmlns="http://www.w3.org/2000/svg"><path d="M9 0a9 9 0 100 18A9 9 0 009 0zm4.154 10.385H9a.692.692 0 01-.692-.693v-6.23a.692.692 0 011.384 0V9h3.462a.692.692 0 110 1.385z"/></svg><svg viewBox="0 0 19 18" id="facebook" xmlns="http://www.w3.org/2000/svg"><path fill-rule="evenodd" clip-rule="evenodd" d="M18.515 9.507c0-4.74-3.991-8.583-8.913-8.583C4.679.924.688 4.768.688 9.507c0 4.284 3.26 7.835 7.52 8.48v-5.998H5.946V9.507H8.21v-1.89c0-2.151 1.33-3.34 3.367-3.34.975 0 1.995.167 1.995.167v2.113h-1.124c-1.107 0-1.453.661-1.453 1.341v1.61h2.472l-.395 2.481h-2.077v5.998c4.262-.644 7.52-4.195 7.52-8.48z"/></svg><svg viewBox="0 0 18 19" id="instagram" xmlns="http://www.w3.org/2000/svg"><g clip-path="url(#ea)"><path d="M12.627 2.355a3.8 3.8 0 012.623 1.05 3.522 3.522 0 011.09 2.526v7.152a3.522 3.522 0 01-1.09 2.526 3.799 3.799 0 01-2.623 1.05H5.199a3.799 3.799 0 01-2.623-1.05 3.522 3.522 0 01-1.09-2.526V5.931a3.521 3.521 0 011.09-2.526A3.799 3.799 0 015.2 2.355h7.428zm0-1.43H5.199C2.34.924 0 3.176 0 5.93v7.152c0 2.754 2.34 5.007 5.2 5.007h7.427c2.86 0 5.2-2.253 5.2-5.007V5.931c0-2.754-2.34-5.007-5.2-5.007z"/><path d="M13.74 5.931c-.22 0-.435-.063-.618-.18a1.083 1.083 0 01-.41-.482 1.035 1.035 0 01-.064-.62c.043-.208.15-.4.305-.55.156-.15.354-.251.57-.293.217-.041.44-.02.644.061.204.082.378.219.5.395a1.045 1.045 0 01-.138 1.356 1.149 1.149 0 01-.789.314zm-4.827.715c.588 0 1.162.168 1.65.483.49.314.87.76 1.095 1.284.225.522.284 1.098.17 1.653a2.83 2.83 0 01-.814 1.465c-.415.4-.945.672-1.521.783a3.077 3.077 0 01-1.717-.163 2.95 2.95 0 01-1.333-1.054 2.786 2.786 0 01-.501-1.59c0-.758.314-1.485.871-2.022a3.033 3.033 0 012.1-.839zm0-1.43a4.58 4.58 0 00-2.476.723 4.33 4.33 0 00-1.641 1.926 4.144 4.144 0 00-.254 2.48 4.245 4.245 0 001.22 2.197 4.512 4.512 0 002.282 1.175c.864.165 1.76.08 2.574-.245a4.424 4.424 0 002-1.58 4.18 4.18 0 00.752-2.384c0-1.139-.47-2.23-1.306-3.035a4.545 4.545 0 00-3.15-1.257z"/></g><defs><clipPath id="ea"><path d="M0 0h18v19H0z"/></clipPath></defs></svg><svg viewBox="0 0 18 20" id="name" xmlns="http://www.w3.org/2000/svg"><path d="M12.316 1.454C11.474.517 10.298 0 9 0 7.695 0 6.515.513 5.677 1.446c-.847.942-1.26 2.223-1.163 3.606C4.706 7.78 6.718 10 9 10c2.281 0 4.29-2.22 4.486-4.947.098-1.37-.318-2.649-1.17-3.599zM16.616 20H1.384c-.2.003-.397-.04-.578-.127a1.348 1.348 0 01-.47-.37c-.28-.347-.394-.82-.31-1.3.365-2.09 1.505-3.845 3.296-5.078C4.915 12.03 6.93 11.428 9 11.428s4.085.603 5.677 1.697c1.791 1.232 2.93 2.988 3.296 5.078.084.479-.03.953-.31 1.3a1.347 1.347 0 01-.47.37 1.3 1.3 0 01-.578.127z"/></svg><svg viewBox="0 0 384 512" id="next" xmlns="http://www.w3.org/2000/svg"><!--! Font Awesome Pro 6.2.0 by @fontawesome - https://fontawesome.com License - https://fontawesome.com/license (Commercial License) Copyright 2022 Fonticons, Inc.--><path d="M342.6 233.4c12.5 12.5 12.5 32.8 0 45.3l-192 192c-12.5 12.5-32.8 12.5-45.3 0s-12.5-32.8 0-45.3L274.7 256 105.4 86.6c-12.5-12.5-12.5-32.8 0-45.3s32.8-12.5 45.3 0l192 192z"/></svg><svg viewBox="0 0 19 19" id="pop" xmlns="http://www.w3.org/2000/svg"><g clip-path="url(#ha)"><path d="M9.395 0A9.054 9.054 0 00.34 9.053c0 3.705 2.232 6.89 5.422 8.292-.025-.63-.004-1.39.157-2.077l1.165-4.934s-.291-.578-.291-1.431c0-1.342.776-2.344 1.746-2.344.825 0 1.221.618 1.221 1.358 0 .828-.53 2.065-.8 3.213-.227.962.48 1.742 1.431 1.742 1.714 0 2.87-2.203 2.87-4.814 0-1.984-1.338-3.467-3.768-3.467-2.745 0-4.46 2.049-4.46 4.336 0 .788.235 1.346.6 1.774.165.198.19.28.129.506-.045.165-.142.565-.186.727-.061.23-.247.311-.453.226-1.266-.517-1.856-1.9-1.856-3.459 0-2.57 2.171-5.654 6.473-5.654 3.457 0 5.733 2.502 5.733 5.185 0 3.553-1.977 6.204-4.888 6.204-.978 0-1.896-.53-2.212-1.128 0 0-.525 2.085-.638 2.49-.19.699-.566 1.394-.91 1.94a9.108 9.108 0 002.567.371c5.002 0 9.057-4.053 9.057-9.052 0-5-4.051-9.057-9.053-9.057z"/></g><defs><clipPath id="ha"><path d="M0 0h19v19H0z"/></clipPath></defs></svg><svg viewBox="0 0 384 512" id="prev" xmlns="http://www.w3.org/2000/svg"><!--! Font Awesome Pro 6.2.0 by @fontawesome - https://fontawesome.com License - https://fontawesome.com/license (Commercial License) Copyright 2022 Fonticons, Inc.--><path d="M41.4 233.4c-12.5 12.5-12.5 32.8 0 45.3l192 192c12.5 12.5 32.8 12.5 45.3 0s12.5-32.8 0-45.3L109.3 256 278.6 86.6c12.5-12.5 12.5-32.8 0-45.3s-32.8-12.5-45.3 0l-192 192z"/></svg><svg viewBox="0 0 24 18" id="quote" xmlns="http://www.w3.org/2000/svg"><path d="M19.855 1.46a8.165 8.165 0 00-3.017 2.228c-.86.996-1.377 2.011-1.553 3.046a8.18 8.18 0 00-.146 1.407c0 .449.049.82.146 1.113.918-.957 2.08-1.436 3.486-1.436 1.407 0 2.55.41 3.428 1.23.88.821 1.319 1.954 1.319 3.4 0 1.367-.47 2.48-1.407 3.34-.918.858-2.09 1.288-3.515 1.288-1.953 0-3.38-.703-4.278-2.11-.41-.605-.732-1.347-.966-2.226A10.864 10.864 0 0113 9.986c0-2.05.527-3.925 1.582-5.625 1.055-1.699 2.627-3.027 4.717-3.984l.556 1.084zm-12.363 0a8.165 8.165 0 00-3.017 2.228c-.86.996-1.377 2.011-1.553 3.046a8.184 8.184 0 00-.147 1.407c0 .449.05.82.147 1.113.918-.957 2.08-1.436 3.486-1.436 1.406 0 2.549.41 3.428 1.23.879.821 1.318 1.954 1.318 3.4 0 1.367-.469 2.48-1.406 3.34-.918.858-2.09 1.288-3.516 1.288-1.953 0-3.378-.703-4.277-2.11-.41-.605-.732-1.347-.967-2.226a10.865 10.865 0 01-.351-2.754c0-2.05.527-3.925 1.582-5.625C3.273 2.662 4.846 1.334 6.936.377l.556 1.084z"/></svg><svg viewBox="0 0 20 17" id="twitter" xmlns="http://www.w3.org/2000/svg"><path d="M19.477 2.66a8.03 8.03 0 01-2.25.608 3.88 3.88 0 001.723-2.133 7.87 7.87 0 01-2.489.935A3.944 3.944 0 0013.6.85c-2.166 0-3.918 1.727-3.918 3.855-.002.296.032.592.101.88a11.17 11.17 0 01-8.077-4.031 3.807 3.807 0 00-.533 1.938c0 1.337.697 2.518 1.75 3.21a3.88 3.88 0 01-1.781-.48v.047c0 1.87 1.353 3.426 3.143 3.78-.337.09-.683.136-1.032.136-.247 0-.494-.024-.736-.072.497 1.532 1.946 2.646 3.662 2.678a7.942 7.942 0 01-5.802 1.595 11.088 11.088 0 005.998 1.743c7.216 0 11.159-5.877 11.159-10.974 0-.167-.005-.334-.012-.497a7.896 7.896 0 001.955-1.998z"/></svg></svg>